<svg width="256" height="256" viewBox="0 0 256 256" fill="none" xmlns="http://www.w3.org/2000/svg">
<path d="M230.92 212C215.69 185.67 192.22 166.79 164.83 157.84C178.378 149.775 188.905 137.485 194.792 122.858C200.68 108.231 201.603 92.076 197.421 76.8736C193.238 61.6711 184.181 48.2619 171.64 38.7052C159.099 29.1485 143.767 23.9728 128 23.9728C112.233 23.9728 96.9013 29.1485 84.3603 38.7052C71.8192 48.2619 62.762 61.6711 58.5794 76.8736C54.3969 92.076 55.3203 108.231 61.2079 122.858C67.0955 137.485 77.6217 149.775 91.17 157.84C63.78 166.78 40.31 185.66 25.08 212C24.5215 212.911 24.1511 213.924 23.9905 214.98C23.83 216.036 23.8826 217.114 24.1453 218.149C24.4079 219.185 24.8754 220.157 25.5199 221.009C26.1645 221.861 26.9732 222.575 27.8983 223.11C28.8233 223.644 29.8461 223.988 30.9061 224.12C31.9661 224.253 33.042 224.172 34.0702 223.882C35.0985 223.592 36.0582 223.1 36.8929 222.433C37.7276 221.766 38.4202 220.939 38.93 220C57.77 187.44 91.07 168 128 168C164.93 168 198.23 187.44 217.07 220C217.58 220.939 218.272 221.766 219.107 222.433C219.942 223.1 220.902 223.592 221.93 223.882C222.958 224.172 224.034 224.253 225.094 224.12C226.154 223.988 227.177 223.644 228.102 223.11C229.027 222.575 229.836 221.861 230.48 221.009C231.125 220.157 231.592 219.185 231.855 218.149C232.117 217.114 232.17 216.036 232.01 214.98C231.849 213.924 231.479 212.911 230.92 212ZM72 96C72 84.9242 75.2844 74.0972 81.4377 64.8881C87.5911 55.6789 96.3371 48.5012 106.57 44.2627C116.802 40.0242 128.062 38.9152 138.925 41.076C149.788 43.2368 159.766 48.5703 167.598 56.402C175.43 64.2337 180.763 74.212 182.924 85.0749C185.085 95.9379 183.976 107.198 179.737 117.43C175.499 127.663 168.321 136.409 159.112 142.562C149.903 148.716 139.076 152 128 152C113.153 151.984 98.9182 146.079 88.4196 135.58C77.921 125.082 72.0159 110.847 72 96Z" fill="#888"/>
</svg>
